<svg width="229" height="41" viewBox="0 0 229 41" fill="none" xmlns="http://www.w3.org/2000/svg">
<path d="M43.2879 0L0.690796 40.7551C26.8477 21.4137 57.18 10.4382 69.0765 7.36816V4.83535L43.2879 0Z" fill="#6D9DE9"/>
<path d="M94.4045 3.45382C65.6687 5.29586 17.1156 30.4704 0 40.9854C22.8413 39.5117 63.7806 37.9153 77.8261 39.1433C77.4577 26.6175 88.7249 10.1312 94.4045 3.45382Z" fill="#013A94"/>
<path d="M104.127 28.4927V11.4302H107.279V18.8482L113.654 11.4302H117.123L107.279 22.6216V28.4927H104.127ZM114.053 28.4927L108.065 20.0669L110.069 17.7817L117.838 28.4927H114.053ZM116.074 23.4067V23.1138H119.133V23.4888C119.133 24.5122 119.344 25.2544 119.765 25.7153C120.187 26.1685 120.804 26.395 121.617 26.395C122.414 26.395 123.027 26.1489 123.457 25.6567C123.887 25.1567 124.101 24.3482 124.101 23.231V11.4302H127.265V22.9966C127.265 24.8482 126.765 26.2817 125.765 27.2974C124.773 28.313 123.406 28.8208 121.664 28.8208C119.945 28.8208 118.582 28.3677 117.574 27.4614C116.574 26.5474 116.074 25.1958 116.074 23.4067ZM128.384 20.4771V19.4458C128.384 16.6958 129.06 14.6216 130.412 13.2232C131.763 11.8169 133.505 11.1138 135.638 11.1138C137.701 11.1138 139.322 11.6528 140.501 12.731C141.681 13.8091 142.271 15.2153 142.271 16.9497V17.313H139.13V16.8677C139.13 15.8364 138.841 15.0278 138.263 14.4419C137.685 13.8482 136.806 13.5513 135.626 13.5513C134.431 13.5513 133.466 13.9888 132.732 14.8638C132.005 15.7388 131.642 17.1372 131.642 19.0591V20.8638C131.642 22.6685 132.005 24.0396 132.732 24.9771C133.458 25.9146 134.435 26.3833 135.662 26.3833C136.787 26.3833 137.63 26.0786 138.193 25.4692C138.755 24.8599 139.064 24.0357 139.119 22.9966L139.13 22.6216H142.271V23.0317C142.185 24.7114 141.576 26.0942 140.443 27.1802C139.31 28.2661 137.708 28.8091 135.638 28.8091C133.466 28.8091 131.712 28.1021 130.376 26.688C129.048 25.2739 128.384 23.2036 128.384 20.4771Z" fill="black"/>
<path d="M146.36 23.7583V23.3599H149.489V23.688C149.489 24.6021 149.774 25.2857 150.344 25.7388C150.915 26.1919 151.712 26.4185 152.735 26.4185C153.758 26.4185 154.54 26.1997 155.079 25.7622C155.626 25.3247 155.899 24.7427 155.899 24.0161C155.899 23.3208 155.633 22.7739 155.102 22.3755C154.579 21.9771 153.508 21.5474 151.891 21.0864C150.11 20.5786 148.79 19.9341 147.93 19.1528C147.071 18.3716 146.641 17.2974 146.641 15.9302C146.641 14.4849 147.176 13.3208 148.247 12.438C149.325 11.5552 150.786 11.1138 152.629 11.1138C154.465 11.1138 155.934 11.563 157.036 12.4614C158.145 13.3599 158.7 14.5591 158.7 16.0591V16.4107H155.606V16.1294C155.606 15.3403 155.356 14.7114 154.856 14.2427C154.356 13.7661 153.622 13.5278 152.653 13.5278C151.669 13.5278 150.942 13.7271 150.473 14.1255C150.012 14.5161 149.782 15.0474 149.782 15.7192C149.782 16.3521 150.036 16.8482 150.544 17.2075C151.051 17.5591 152.122 17.9653 153.754 18.4263C155.504 18.9263 156.821 19.5825 157.704 20.395C158.587 21.2075 159.028 22.3482 159.028 23.8169C159.028 25.3638 158.458 26.5864 157.317 27.4849C156.176 28.3755 154.653 28.8208 152.747 28.8208C150.856 28.8208 149.317 28.3833 148.129 27.5083C146.95 26.6333 146.36 25.3833 146.36 23.7583ZM159.792 22.6802V22.3052C159.792 20.4536 160.347 18.9692 161.456 17.8521C162.573 16.7271 164.042 16.1646 165.862 16.1646C167.683 16.1646 169.147 16.7271 170.257 17.8521C171.374 18.9692 171.933 20.4536 171.933 22.3052V22.6802C171.933 24.5317 171.374 26.02 170.257 27.145C169.147 28.2622 167.683 28.8208 165.862 28.8208C164.042 28.8208 162.573 28.2622 161.456 27.145C160.347 26.02 159.792 24.5317 159.792 22.6802ZM162.909 22.188V22.7974C162.909 23.9302 163.159 24.8325 163.659 25.5044C164.167 26.1685 164.897 26.5005 165.851 26.5005C166.812 26.5005 167.542 26.1685 168.042 25.5044C168.55 24.8325 168.804 23.9302 168.804 22.7974V22.188C168.804 21.0552 168.55 20.1567 168.042 19.4927C167.534 18.8286 166.804 18.4966 165.851 18.4966C164.905 18.4966 164.179 18.8286 163.671 19.4927C163.163 20.1567 162.909 21.0552 162.909 22.188ZM173.376 28.4927V10.7271H176.447V28.4927H173.376ZM178.441 24.063V16.5044H181.5V24.0396C181.5 24.8989 181.679 25.5005 182.039 25.8442C182.406 26.188 182.91 26.3599 183.551 26.3599C184.121 26.3599 184.625 26.1997 185.062 25.8794C185.5 25.5513 185.836 25.1411 186.07 24.6489V16.5044H189.129V28.4927H186.234L186.164 27.0161H186.105C185.73 27.5474 185.23 27.9692 184.605 28.2817C183.98 28.5864 183.273 28.7388 182.484 28.7388C181.281 28.7388 180.304 28.3794 179.554 27.6607C178.812 26.9419 178.441 25.7427 178.441 24.063ZM189.74 18.7661V16.5044H197.123V18.7661H189.74ZM191.651 25.0708V17.5591L191.674 17.2661V13.3638H194.697V24.8833C194.697 25.5005 194.803 25.9185 195.014 26.1372C195.225 26.356 195.541 26.4653 195.963 26.4653C196.151 26.4653 196.338 26.4458 196.526 26.4067C196.713 26.3677 196.901 26.313 197.088 26.2427V28.481C196.893 28.5669 196.623 28.645 196.279 28.7153C195.944 28.7857 195.561 28.8208 195.131 28.8208C194.069 28.8208 193.221 28.5239 192.588 27.9302C191.963 27.3286 191.651 26.3755 191.651 25.0708ZM198.239 28.4927V16.5044H201.309V28.4927H198.239ZM197.958 12.895C197.958 12.4263 198.114 12.0317 198.426 11.7114C198.739 11.3833 199.188 11.2192 199.774 11.2192C200.36 11.2192 200.805 11.3794 201.11 11.6997C201.422 12.02 201.579 12.4185 201.579 12.895C201.579 13.3716 201.422 13.7739 201.11 14.1021C200.797 14.4224 200.348 14.5825 199.762 14.5825C199.184 14.5825 198.739 14.4224 198.426 14.1021C198.114 13.7739 197.958 13.3716 197.958 12.895ZM202.776 22.6802V22.3052C202.776 20.4536 203.331 18.9692 204.44 17.8521C205.558 16.7271 207.026 16.1646 208.847 16.1646C210.667 16.1646 212.132 16.7271 213.241 17.8521C214.358 18.9692 214.917 20.4536 214.917 22.3052V22.6802C214.917 24.5317 214.358 26.02 213.241 27.145C212.132 28.2622 210.667 28.8208 208.847 28.8208C207.026 28.8208 205.558 28.2622 204.44 27.145C203.331 26.02 202.776 24.5317 202.776 22.6802ZM205.894 22.188V22.7974C205.894 23.9302 206.144 24.8325 206.644 25.5044C207.151 26.1685 207.882 26.5005 208.835 26.5005C209.796 26.5005 210.526 26.1685 211.026 25.5044C211.534 24.8325 211.788 23.9302 211.788 22.7974V22.188C211.788 21.0552 211.534 20.1567 211.026 19.4927C210.519 18.8286 209.788 18.4966 208.835 18.4966C207.89 18.4966 207.163 18.8286 206.655 19.4927C206.147 20.1567 205.894 21.0552 205.894 22.188ZM216.326 28.4927V16.5044H219.22L219.29 17.9692H219.349C219.693 17.4536 220.177 17.0396 220.802 16.7271C221.435 16.4146 222.142 16.2583 222.923 16.2583C224.142 16.2583 225.126 16.606 225.876 17.3013C226.634 17.9888 227.013 19.1685 227.013 20.8403V28.4927H223.954V20.8989C223.954 20.0786 223.775 19.5005 223.415 19.1646C223.056 18.8208 222.552 18.6489 221.904 18.6489C221.349 18.6489 220.849 18.8052 220.404 19.1177C219.958 19.4224 219.619 19.8364 219.384 20.3599V28.4927H216.326Z" fill="#013A94"/>
</svg>
